<svg xmlns="http://www.w3.org/2000/svg" viewBox="0 0 24 24" role="img" aria-label="TikTok">
  <path fill="#25F4EE" d="M14.7 2h2.3c.2 1.5 1 2.7 2.8 3.3v2.5c-1.1 0-2.1-.3-3-1v7.1c0 4-4.2 5.7-7.2 3.7-2.3-1.5-2.7-4.8-.9-6.9 1.1-1.3 2.7-1.9 4.5-1.7v2.7c-.6-.1-1.2 0-1.7.3-1.2.7-1.1 2.6.2 3.1 1.1.4 2.9-.2 2.9-2.3V2Z"/>
  <path fill="#FE2C55" d="M15.8 3.2c.5 1.8 1.8 3.2 3.7 3.6v2.4c-1.3-.1-2.5-.5-3.7-1.3v6.3c0 3.2-2.3 5.4-5.3 5.4-1.3 0-2.5-.4-3.5-1.2 3 .8 6-.9 6-4.8V7.4c.8.6 1.7 1 2.8 1.2V3.2Z"/>
  <path fill="#000000" d="M14.5 2c.4 2.7 1.9 4.3 4.4 4.5v2.7c-1.5 0-2.8-.5-4.1-1.3v6.4c0 3.9-4.4 5.3-7 3.1-1.7-1.5-1.9-4.1-.4-5.8 1.1-1.3 2.6-1.8 4.4-1.5v2.7c-.5-.1-.9-.1-1.3.1-1.3.5-1.5 2.2-.3 3 1 .7 2.9.1 2.9-1.8V2h1.4Z"/>
</svg>
